<?xml version="1.0" encoding="utf-8"?>
<!-- Generator: Adobe Illustrator 24.1.3, SVG Export Plug-In . SVG Version: 6.00 Build 0)  -->
<svg version="1.1" xmlns="http://www.w3.org/2000/svg" xmlns:xlink="http://www.w3.org/1999/xlink" x="0px" y="0px"
	 viewBox="0 0 100 100" style="enable-background:new 0 0 100 100;" xml:space="preserve">
<style type="text/css">
	.st0{display:none;}
	.st1{display:inline;}
	.st2{fill:#264653;}
	.st3{display:inline;fill:#264653;}
	.st4{display:inline;fill:#5A727C;}
</style>
<g id="Layer_1" class="st0">
	<g id="Layer_1_1_">
		<g class="st1">
			<path class="st2" d="M55.69,49.97c-0.74-0.38-1.64-0.09-2.02,0.65L43.63,70.27c-0.38,0.74-0.08,1.64,0.65,2.02
				c0.22,0.11,0.45,0.17,0.68,0.17c0.54,0,1.07-0.3,1.34-0.82L56.35,52C56.72,51.25,56.43,50.35,55.69,49.97z"/>
			<path class="st2" d="M66.21,49.22c-0.59-0.58-1.54-0.58-2.12,0s-0.59,1.54,0,2.12l9.58,9.58l-9.58,9.58
				c-0.59,0.58-0.59,1.54,0,2.12c0.29,0.29,0.68,0.44,1.06,0.44s0.77-0.15,1.06-0.44l10.64-10.64c0.28-0.28,0.44-0.66,0.44-1.06
				s-0.16-0.78-0.44-1.06L66.21,49.22z"/>
			<path class="st2" d="M35.91,49.22c-0.58-0.59-1.53-0.59-2.12,0L23.15,59.86c-0.28,0.28-0.44,0.66-0.44,1.06s0.16,0.78,0.44,1.06
				l10.64,10.64c0.29,0.29,0.68,0.44,1.06,0.44s0.77-0.15,1.06-0.44c0.59-0.59,0.59-1.54,0-2.12l-9.58-9.58l9.58-9.58
				C36.5,50.76,36.5,49.81,35.91,49.22z"/>
			<path class="st2" d="M95.87,8.41H4.13c-0.83,0-1.5,0.67-1.5,1.5v80.17c0,0.83,0.67,1.5,1.5,1.5h91.75c0.83,0,1.5-0.67,1.5-1.5
				V9.91C97.37,9.08,96.7,8.41,95.87,8.41z M94.37,11.41v18.86H5.63V11.41H94.37z M5.63,88.59V33.28h88.75v55.31
				C94.37,88.59,5.63,88.59,5.63,88.59z"/>
			<path class="st2" d="M13.56,21.85h6.89c0.83,0,1.5-0.67,1.5-1.5s-0.67-1.5-1.5-1.5h-6.89c-0.83,0-1.5,0.67-1.5,1.5
				C12.06,21.18,12.73,21.85,13.56,21.85z"/>
			<path class="st2" d="M28.33,21.85h6.89c0.83,0,1.5-0.67,1.5-1.5s-0.67-1.5-1.5-1.5h-6.89c-0.83,0-1.5,0.67-1.5,1.5
				C26.83,21.18,27.5,21.85,28.33,21.85z"/>
		</g>
	</g>
	<g id="Layer_2_1_">
		<path class="st3" d="M69,6.13C67.03,4.09,64.3,2.96,61.47,3h-50.7C7.94,2.96,5.21,4.09,3.24,6.13c-2.04,1.97-3.17,4.7-3.13,7.53
			v72.51C0.07,89,1.2,91.73,3.24,93.7c1.97,2.04,4.7,3.17,7.53,3.13h46.74c-1.88-1.91-2.93-4.49-2.91-7.17v-7.79H10.77
			c-2.33-0.02-4.21-1.9-4.23-4.23V13.67c0.01-2.33,1.9-4.21,4.23-4.23h50.7c2.33,0.02,4.21,1.9,4.23,4.23v16.87h6.44V13.67
			C72.17,10.83,71.04,8.1,69,6.13z M33.12,86.62c1.66-1.61,4.3-1.58,5.92,0.08c1.61,1.66,1.58,4.3-0.08,5.92s-4.3,1.58-5.92-0.08
			c-0.76-0.78-1.19-1.83-1.19-2.92C31.84,88.49,32.3,87.4,33.12,86.62L33.12,86.62z"/>
		<path class="st4" d="M97.89,35.81c-1.33-1.37-3.16-2.13-5.07-2.11H64.94c-3.96,0.01-7.16,3.22-7.18,7.18v48.79
			c0.01,3.96,3.22,7.16,7.18,7.17h27.89c3.96-0.01,7.16-3.22,7.18-7.17V40.88C100.03,38.97,99.26,37.13,97.89,35.81z M80.9,94
			c-1.11,1.08-2.9,1.06-3.98-0.06c-1.08-1.11-1.06-2.9,0.06-3.98s2.9-1.06,3.98,0.06c0.51,0.53,0.8,1.23,0.8,1.96
			C81.76,92.74,81.45,93.47,80.9,94z M95.67,83.93c-0.01,1.57-1.28,2.83-2.84,2.84H64.94c-1.57-0.01-2.83-1.28-2.84-2.84V40.88
			c0.01-1.57,1.28-2.83,2.84-2.84h27.89c1.57,0.01,2.83,1.28,2.84,2.84V83.93z"/>
	</g>
	<g id="Layer_3">
		<path class="st3" d="M65.55,13.23c-1.62-1.67-3.86-2.6-6.18-2.57H17.75c-2.33-0.03-4.56,0.9-6.18,2.57
			C9.9,14.85,8.97,17.09,9,19.41v59.53c-0.03,2.33,0.9,4.56,2.57,6.18c1.62,1.67,3.86,2.6,6.18,2.57h38.37
			c-1.55-1.57-2.4-3.69-2.39-5.89v-6.4H17.75c-1.91-0.01-3.46-1.56-3.47-3.47V19.42c0.01-1.91,1.56-3.46,3.47-3.47h41.62
			c1.91,0.01,3.46,1.56,3.47,3.47v13.85h5.29V19.42C68.16,17.09,67.22,14.85,65.55,13.23z M36.1,79.31
			c1.36-1.32,3.53-1.29,4.86,0.07c1.32,1.36,1.29,3.53-0.07,4.86s-3.53,1.29-4.86-0.07c-0.62-0.64-0.97-1.5-0.97-2.39
			C35.05,80.84,35.42,79.95,36.1,79.31L36.1,79.31z"/>
		<path class="st3" d="M89.27,37.6c-1.09-1.13-2.59-1.75-4.16-1.73H62.22c-3.25,0.01-5.88,2.64-5.89,5.89v40.05
			c0.01,3.25,2.64,5.88,5.89,5.89h22.89c3.25-0.01,5.88-2.64,5.89-5.89V41.76C91.02,40.19,90.39,38.68,89.27,37.6z M75.32,85.37
			c-0.91,0.89-2.38,0.87-3.27-0.05s-0.87-2.38,0.05-3.27c0.91-0.89,2.38-0.87,3.27,0.05c0.42,0.43,0.65,1.01,0.65,1.61
			C76.02,84.34,75.77,84.93,75.32,85.37z M87.44,77.1c-0.01,1.29-1.05,2.33-2.33,2.33H62.22c-1.29-0.01-2.33-1.05-2.33-2.33V41.76
			c0.01-1.29,1.05-2.33,2.33-2.33h22.89c1.29,0.01,2.33,1.05,2.33,2.33V77.1z"/>
	</g>
	<g id="Layer_4" class="st1">
		<path class="st2" d="M85.83,13.89H14.17c-1.76,0-3.27,1.28-3.56,3.01v52.01c0.07,1.55,1.36,2.76,2.91,2.75H43.4l-0.06,2.31
			c-0.03,0.68-0.32,1.32-0.82,1.79l-3.49,3.28c-0.61,0.57-1.41,0.89-2.25,0.89l0,0c-2.16,0-3.91,1.75-3.91,3.91v2.26h34.27v-2.26
			c0-2.16-1.75-3.91-3.91-3.91l0,0l0,0c-0.83,0-1.64-0.32-2.25-0.89l-3.49-3.28c-0.5-0.47-0.79-1.11-0.82-1.79l-0.06-2.31h29.88
			c1.55,0.01,2.83-1.2,2.91-2.75V16.9C89.1,15.16,87.59,13.89,85.83,13.89z M82.92,59.96H17.08V20.37h65.85L82.92,59.96z"/>
	</g>
</g>
<g id="Layer_2" class="st0">
	<path class="st3" d="M89.5,14.96h-79c-0.83,0-1.5,0.67-1.5,1.5v49.19c0,0.83,0.67,1.5,1.5,1.5h28.23l-1.4,14.75
		c0,0.04,0,0.09,0,0.13h-7.45c-0.83,0-1.5,0.67-1.5,1.5s0.67,1.5,1.5,1.5h41.74c0.83,0,1.5-0.67,1.5-1.5s-0.67-1.5-1.5-1.5h-8.2
		c0-0.04,0.01-0.09,0-0.13l-1.4-14.75H89.5c0.83,0,1.5-0.67,1.5-1.5V16.46C91,15.63,90.33,14.96,89.5,14.96z M60.42,82.04H40.33
		l1.42-14.89H59L60.42,82.04z M88,64.15H12V17.96h76V64.15z"/>
</g>
<g id="Layer_3_1_">
	<path class="st2" d="M93,8H7c-1.1,0-2,0.9-2,2v66c0,1.1,0.9,2,2,2h34.3l-2.9,10H33c-1.1,0-2,0.9-2,2s0.9,2,2,2h7l0,0l0,0h20l0,0
		l0,0h7c1.1,0,2-0.9,2-2s-0.9-2-2-2h-5.5l-2.9-10H93c1.1,0,2-0.9,2-2V10C95,8.9,94.1,8,93,8z M91,12v50H9V12H91z M57.3,88H42.7
		l2.9-10h9L57.3,88z M9,74v-8h82v8H9z M51.4,68.6C51.8,69,52,69.5,52,70c0,0.3,0,0.5-0.2,0.8c-0.1,0.2-0.2,0.5-0.4,0.6
		c-0.2,0.2-0.4,0.3-0.6,0.4C50.5,72,50.3,72,50,72s-0.5,0-0.8-0.2c-0.2-0.1-0.5-0.2-0.6-0.4c-0.2-0.2-0.3-0.4-0.4-0.6
		C48,70.5,48,70.3,48,70c0-0.5,0.2-1,0.6-1.4C49.3,67.8,50.7,67.8,51.4,68.6z"/>
</g>
</svg>
