<?xml version="1.0" encoding="utf-8"?>
<!-- Generator: Adobe Illustrator 24.1.3, SVG Export Plug-In . SVG Version: 6.00 Build 0)  -->
<svg version="1.1" xmlns="http://www.w3.org/2000/svg" xmlns:xlink="http://www.w3.org/1999/xlink" x="0px" y="0px"
	 viewBox="0 0 100 100" style="enable-background:new 0 0 100 100;" xml:space="preserve">
<style type="text/css">
	.st0{display:none;}
	.st1{display:inline;}
	.st2{fill:#264653;}
	.st3{display:inline;fill:#264653;}
	.st4{display:inline;fill:#5A727C;}
</style>
<g id="Layer_1" class="st0">
	<g class="st1">
		<path class="st2" d="M55.69,49.97c-0.74-0.38-1.64-0.09-2.02,0.65L43.63,70.27c-0.38,0.74-0.08,1.64,0.65,2.02
			c0.22,0.11,0.45,0.17,0.68,0.17c0.54,0,1.07-0.3,1.34-0.82l10.05-19.64C56.72,51.25,56.43,50.35,55.69,49.97z"/>
		<path class="st2" d="M66.21,49.22c-0.59-0.58-1.54-0.58-2.12,0s-0.59,1.54,0,2.12l9.58,9.58l-9.58,9.58
			c-0.59,0.58-0.59,1.54,0,2.12c0.29,0.29,0.68,0.44,1.06,0.44s0.77-0.15,1.06-0.44l10.64-10.64c0.28-0.28,0.44-0.66,0.44-1.06
			s-0.16-0.78-0.44-1.06L66.21,49.22z"/>
		<path class="st2" d="M35.91,49.22c-0.58-0.59-1.53-0.59-2.12,0L23.15,59.86c-0.28,0.28-0.44,0.66-0.44,1.06s0.16,0.78,0.44,1.06
			l10.64,10.64c0.29,0.29,0.68,0.44,1.06,0.44s0.77-0.15,1.06-0.44c0.59-0.59,0.59-1.54,0-2.12l-9.58-9.58l9.58-9.58
			C36.5,50.76,36.5,49.81,35.91,49.22z"/>
		<path class="st2" d="M95.87,8.41H4.13c-0.83,0-1.5,0.67-1.5,1.5v80.17c0,0.83,0.67,1.5,1.5,1.5h91.75c0.83,0,1.5-0.67,1.5-1.5
			V9.91C97.37,9.08,96.7,8.41,95.87,8.41z M94.37,11.41v18.86H5.63V11.41H94.37z M5.63,88.59V33.28h88.75v55.31
			C94.37,88.59,5.63,88.59,5.63,88.59z"/>
		<path class="st2" d="M13.56,21.85h6.89c0.83,0,1.5-0.67,1.5-1.5c0-0.83-0.67-1.5-1.5-1.5h-6.89c-0.83,0-1.5,0.67-1.5,1.5
			C12.06,21.18,12.73,21.85,13.56,21.85z"/>
		<path class="st2" d="M28.33,21.85h6.89c0.83,0,1.5-0.67,1.5-1.5c0-0.83-0.67-1.5-1.5-1.5h-6.89c-0.83,0-1.5,0.67-1.5,1.5
			C26.83,21.18,27.5,21.85,28.33,21.85z"/>
	</g>
</g>
<g id="Layer_2" class="st0">
	<path class="st3" d="M69,6.13C67.03,4.09,64.3,2.96,61.47,3h-50.7C7.94,2.96,5.21,4.09,3.24,6.13c-2.04,1.97-3.17,4.7-3.13,7.53
		v72.51c-0.04,2.83,1.09,5.56,3.13,7.53c1.97,2.04,4.7,3.17,7.53,3.13h46.74c-1.88-1.91-2.93-4.49-2.91-7.17v-7.79H10.77
		c-2.33-0.02-4.21-1.9-4.23-4.23V13.67c0.01-2.33,1.9-4.21,4.23-4.23h50.7c2.33,0.02,4.21,1.9,4.23,4.23v16.87h6.44V13.67
		C72.17,10.83,71.04,8.1,69,6.13z M33.12,86.62c1.66-1.61,4.3-1.58,5.92,0.08c1.61,1.66,1.58,4.3-0.08,5.92s-4.3,1.58-5.92-0.08
		c-0.76-0.78-1.19-1.83-1.19-2.92C31.84,88.49,32.3,87.4,33.12,86.62L33.12,86.62z"/>
	<path class="st4" d="M97.89,35.81c-1.33-1.37-3.16-2.13-5.07-2.11H64.94c-3.96,0.01-7.16,3.22-7.18,7.18v48.79
		c0.01,3.96,3.22,7.16,7.18,7.17h27.89c3.96-0.01,7.16-3.22,7.18-7.17V40.88C100.03,38.97,99.26,37.13,97.89,35.81z M80.9,94
		c-1.11,1.08-2.9,1.06-3.98-0.06c-1.08-1.11-1.06-2.9,0.06-3.98s2.9-1.06,3.98,0.06c0.51,0.53,0.8,1.23,0.8,1.96
		C81.76,92.74,81.45,93.47,80.9,94z M95.67,83.93c-0.01,1.57-1.28,2.83-2.84,2.84H64.94c-1.57-0.01-2.83-1.28-2.84-2.84V40.88
		c0.01-1.57,1.28-2.83,2.84-2.84h27.89c1.57,0.01,2.83,1.28,2.84,2.84L95.67,83.93z"/>
</g>
<g id="Layer_3" class="st0">
	<path class="st3" d="M65.55,13.23c-1.62-1.67-3.86-2.6-6.18-2.57H17.75c-2.33-0.03-4.56,0.9-6.18,2.57
		c-1.67,1.62-2.6,3.86-2.57,6.18v59.53c-0.03,2.33,0.9,4.56,2.57,6.18c1.62,1.67,3.86,2.6,6.18,2.57h38.37
		c-1.55-1.57-2.4-3.69-2.39-5.89v-6.4H17.75c-1.91-0.01-3.46-1.56-3.47-3.47V19.42c0.01-1.91,1.56-3.46,3.47-3.47h41.62
		c1.91,0.01,3.46,1.56,3.47,3.47v13.85h5.29V19.42C68.16,17.09,67.22,14.85,65.55,13.23z M36.1,79.31c1.36-1.32,3.53-1.29,4.86,0.07
		c1.32,1.36,1.29,3.53-0.07,4.86s-3.53,1.29-4.86-0.07c-0.62-0.64-0.97-1.5-0.97-2.39C35.05,80.84,35.42,79.95,36.1,79.31
		L36.1,79.31z"/>
	<path class="st3" d="M89.27,37.6c-1.09-1.13-2.59-1.75-4.16-1.73H62.22c-3.25,0.01-5.88,2.64-5.89,5.89v40.05
		c0.01,3.25,2.64,5.88,5.89,5.89h22.89c3.25-0.01,5.88-2.64,5.89-5.89V41.76C91.02,40.19,90.39,38.68,89.27,37.6z M75.32,85.37
		c-0.91,0.89-2.38,0.87-3.27-0.05s-0.87-2.38,0.05-3.27c0.91-0.89,2.38-0.87,3.27,0.05c0.42,0.43,0.65,1.01,0.65,1.61
		C76.02,84.34,75.77,84.93,75.32,85.37z M87.44,77.1c-0.01,1.29-1.05,2.33-2.33,2.33H62.22c-1.29-0.01-2.33-1.05-2.33-2.33V41.76
		c0.01-1.29,1.05-2.33,2.33-2.33h22.89c1.29,0.01,2.33,1.05,2.33,2.33L87.44,77.1z"/>
</g>
<g id="Layer_4" class="st0">
	<path class="st3" d="M85.83,13.89H14.17c-1.76,0-3.27,1.28-3.56,3.01v52.01c0.07,1.55,1.36,2.76,2.91,2.75h29.88l-0.06,2.31
		c-0.03,0.68-0.32,1.32-0.82,1.79l-3.49,3.28c-0.61,0.57-1.41,0.89-2.25,0.89l0,0c-2.16,0-3.91,1.75-3.91,3.91v2.26h34.27v-2.26
		c0-2.16-1.75-3.91-3.91-3.91c0,0,0,0,0,0l0,0c-0.83,0-1.64-0.32-2.25-0.89l-3.49-3.28c-0.5-0.47-0.79-1.11-0.82-1.79l-0.06-2.31
		h29.88c1.55,0.01,2.83-1.2,2.91-2.75V16.9C89.1,15.16,87.59,13.89,85.83,13.89z M82.92,59.96H17.08V20.37h65.85L82.92,59.96z"/>
</g>
<g id="Layer_5">
	<g>
		<g>
			<g>
				<path class="st2" d="M56.31,9.59c-1.91-0.3-3.85,0.26-5.32,1.52c-0.75,0.64-1.33,1.44-1.73,2.32c-1.92-2.61-5.01-4.32-8.49-4.32
					c-3.9,0-7.3,2.13-9.13,5.28c-0.03,0-0.07-0.01-0.1-0.01c-5.73,0-10.4,4.6-10.54,10.3c-1.83,1.06-3.19,2.82-3.72,4.92
					c-4.06,1.53-6.84,5.46-6.84,9.84c0,1.63,0.38,3.23,1.11,4.7C9.96,46.2,9.1,48.72,9.1,51.32c0,3.04,1.18,5.95,3.25,8.15
					c-0.39,1.17-0.61,2.42-0.61,3.73c0,5.86,4.3,10.84,10.06,11.72c1.09,2.42,3.19,4.29,5.82,5.05c0.48,6.11,5.6,10.93,11.82,10.93
					c3.94,0,7.42-1.93,9.58-4.89c0.38,1.11,1.04,2.11,1.96,2.89c1.21,1.04,2.74,1.59,4.31,1.59c0.34,0,0.68-0.03,1.02-0.08
					C76.35,87.31,90.9,70.31,90.9,50S76.35,12.69,56.31,9.59z M48.68,79.02c0,5.09-4.14,9.23-9.23,9.23s-9.23-4.14-9.23-9.23
					c0-5.09,4.14-9.23,9.23-9.23v-2.64c-5.93,0-10.84,4.37-11.72,10.05c-2.44-0.99-4.11-3.36-4.11-6.1c0-3.64,2.96-6.6,6.6-6.6
					v-2.64c-5.09,0-9.23,4.14-9.23,9.23c0,0.32,0.02,0.63,0.05,0.94c-3.87-1.13-6.65-4.71-6.65-8.86c0-5.09,4.14-9.23,9.23-9.23
					v-2.64c-4.22,0-7.92,2.21-10.02,5.54c-1.19-1.59-1.85-3.52-1.85-5.54c0-2.27,0.84-4.45,2.36-6.15l0.66-0.73l-0.52-0.84
					c-0.77-1.25-1.18-2.69-1.18-4.15c0-2.87,1.6-5.49,4.03-6.87c0.51,3.87,3.83,6.87,7.84,6.87v-2.64c-2.91,0-5.28-2.37-5.28-5.28
					s2.37-5.28,5.28-5.28s5.28,2.37,5.28,5.28h2.64c0-4.37-3.55-7.92-7.92-7.92c-0.41,0-0.82,0.04-1.22,0.1
					c0.54-3.47,3.33-6.19,6.82-6.63c-0.21,0.82-0.33,1.68-0.33,2.57c0,5.82,4.73,10.55,10.55,10.55v-2.64
					c-4.37,0-7.92-3.55-7.92-7.92s3.55-7.92,7.92-7.92s7.92,3.55,7.92,7.92V79.02z M55.9,87.8c-1.15,0.18-2.32-0.15-3.2-0.91
					c-0.88-0.75-1.38-1.85-1.38-3.01V16.11c0-1.16,0.5-2.25,1.38-3.01c0.73-0.62,1.65-0.96,2.59-0.96c0.2,0,0.41,0.02,0.61,0.05
					C74.35,15.05,88.26,31.3,88.26,50S74.35,84.95,55.9,87.8z"/>
				<path class="st2" d="M63.19,40.77v-9.23h-2.64v9.23c0,0.73-0.59,1.32-1.32,1.32h-5.28v2.64h5.28
					C61.42,44.72,63.19,42.95,63.19,40.77z"/>
				<path class="st2" d="M61.87,28.89c2.18,0,3.96-1.78,3.96-3.96s-1.78-3.96-3.96-3.96s-3.96,1.78-3.96,3.96
					S59.69,28.89,61.87,28.89z M61.87,23.62c0.73,0,1.32,0.59,1.32,1.32c0,0.73-0.59,1.32-1.32,1.32s-1.32-0.59-1.32-1.32
					C60.55,24.21,61.14,23.62,61.87,23.62z"/>
				<path class="st2" d="M60.55,59.23v9.23h2.64v-9.23c0-2.18-1.78-3.96-3.96-3.96h-5.28v2.64h5.28
					C59.96,57.92,60.55,58.51,60.55,59.23z"/>
				<path class="st2" d="M61.87,71.11c-2.18,0-3.96,1.78-3.96,3.96s1.78,3.96,3.96,3.96s3.96-1.78,3.96-3.96
					S64.05,71.11,61.87,71.11z M61.87,76.38c-0.73,0-1.32-0.59-1.32-1.32s0.59-1.32,1.32-1.32s1.32,0.59,1.32,1.32
					S62.6,76.38,61.87,76.38z"/>
				<path class="st2" d="M71.11,44.72c0,2.18-1.78,3.96-3.96,3.96H53.96v2.64h13.19c3.64,0,6.6-2.96,6.6-6.6v-3.96h-2.64V44.72z"/>
				<path class="st2" d="M72.43,30.21c-2.18,0-3.96,1.78-3.96,3.96s1.78,3.96,3.96,3.96s3.96-1.78,3.96-3.96
					S74.61,30.21,72.43,30.21z M72.43,35.49c-0.73,0-1.32-0.59-1.32-1.32c0-0.73,0.59-1.32,1.32-1.32s1.32,0.59,1.32,1.32
					C73.75,34.9,73.15,35.49,72.43,35.49z"/>
				<rect x="71.11" y="55.28" class="st2" width="2.64" height="13.19"/>
				<rect x="77.7" y="36.81" class="st2" width="2.64" height="21.11"/>
				<rect x="77.7" y="60.55" class="st2" width="2.64" height="2.64"/>
				<rect x="40.77" y="18.34" class="st2" width="2.64" height="2.64"/>
				<rect x="34.17" y="48.68" class="st2" width="2.64" height="2.64"/>
				<rect x="42.08" y="77.7" class="st2" width="2.64" height="2.64"/>
				<rect x="19.66" y="57.92" class="st2" width="2.64" height="2.64"/>
				<rect x="43.4" y="39.45" class="st2" width="2.64" height="2.64"/>
				<rect x="18.34" y="42.08" class="st2" width="2.64" height="2.64"/>
			</g>
		</g>
	</g>
	<g>
	</g>
	<g>
	</g>
	<g>
	</g>
	<g>
	</g>
	<g>
	</g>
	<g>
	</g>
	<g>
	</g>
	<g>
	</g>
	<g>
	</g>
	<g>
	</g>
	<g>
	</g>
	<g>
	</g>
	<g>
	</g>
	<g>
	</g>
	<g>
	</g>
</g>
</svg>
