<?xml version="1.0" encoding="utf-8"?>
<!-- Generator: Adobe Illustrator 24.1.3, SVG Export Plug-In . SVG Version: 6.00 Build 0)  -->
<svg version="1.1" id="Layer_1" xmlns="http://www.w3.org/2000/svg" xmlns:xlink="http://www.w3.org/1999/xlink" x="0px" y="0px"
	 viewBox="0 0 100 100" style="enable-background:new 0 0 100 100;" xml:space="preserve">
<style type="text/css">
	.st0{fill:#264653;}
</style>
<g>
	<path class="st0" d="M55.69,49.97c-0.74-0.38-1.64-0.09-2.02,0.65L43.63,70.27c-0.38,0.74-0.08,1.64,0.65,2.02
		c0.22,0.11,0.45,0.17,0.68,0.17c0.54,0,1.07-0.3,1.34-0.82l10.05-19.64C56.72,51.25,56.43,50.35,55.69,49.97z"/>
	<path class="st0" d="M66.21,49.22c-0.59-0.58-1.54-0.58-2.12,0s-0.59,1.54,0,2.12l9.58,9.58l-9.58,9.58
		c-0.59,0.58-0.59,1.54,0,2.12c0.29,0.29,0.68,0.44,1.06,0.44s0.77-0.15,1.06-0.44l10.64-10.64c0.28-0.28,0.44-0.66,0.44-1.06
		s-0.16-0.78-0.44-1.06L66.21,49.22z"/>
	<path class="st0" d="M35.91,49.22c-0.58-0.59-1.53-0.59-2.12,0L23.15,59.86c-0.28,0.28-0.44,0.66-0.44,1.06s0.16,0.78,0.44,1.06
		l10.64,10.64c0.29,0.29,0.68,0.44,1.06,0.44s0.77-0.15,1.06-0.44c0.59-0.59,0.59-1.54,0-2.12l-9.58-9.58l9.58-9.58
		C36.5,50.76,36.5,49.81,35.91,49.22z"/>
	<path class="st0" d="M95.87,8.41H4.13c-0.83,0-1.5,0.67-1.5,1.5v80.17c0,0.83,0.67,1.5,1.5,1.5h91.75c0.83,0,1.5-0.67,1.5-1.5V9.91
		C97.37,9.08,96.7,8.41,95.87,8.41z M94.37,11.41v18.86H5.63V11.41H94.37z M5.63,88.59V33.28h88.75v55.31
		C94.37,88.59,5.63,88.59,5.63,88.59z"/>
	<path class="st0" d="M13.56,21.85h6.89c0.83,0,1.5-0.67,1.5-1.5c0-0.83-0.67-1.5-1.5-1.5h-6.89c-0.83,0-1.5,0.67-1.5,1.5
		C12.06,21.18,12.73,21.85,13.56,21.85z"/>
	<path class="st0" d="M28.33,21.85h6.89c0.83,0,1.5-0.67,1.5-1.5c0-0.83-0.67-1.5-1.5-1.5h-6.89c-0.83,0-1.5,0.67-1.5,1.5
		C26.83,21.18,27.5,21.85,28.33,21.85z"/>
</g>
<g>
</g>
<g>
</g>
<g>
</g>
<g>
</g>
<g>
</g>
<g>
</g>
<g>
</g>
<g>
</g>
<g>
</g>
<g>
</g>
<g>
</g>
<g>
</g>
<g>
</g>
<g>
</g>
<g>
</g>
</svg>
