<?xml version="1.0" encoding="utf-8"?>
<!-- Generator: Adobe Illustrator 24.1.3, SVG Export Plug-In . SVG Version: 6.00 Build 0)  -->
<svg version="1.1" xmlns="http://www.w3.org/2000/svg" xmlns:xlink="http://www.w3.org/1999/xlink" x="0px" y="0px"
	 viewBox="0 0 100 100" style="enable-background:new 0 0 100 100;" xml:space="preserve">
<style type="text/css">
	.st0{fill:#2A9D8F;}
	.st1{display:none;}
	.st2{display:inline;}
	.st3{fill:none;stroke:#2A9D8F;stroke-width:4;stroke-linecap:round;stroke-linejoin:round;}
	.st4{display:inline;fill:#2A9D8F;}
	.st5{fill-rule:evenodd;clip-rule:evenodd;fill:#2A9D8F;}
</style>
<g id="Layer_1">
	<g>
		<path class="st0" d="M50,4.93l47.63,34.61l-18.19,56H20.56l-18.19-56L50,4.93 M50,2.46L0.02,38.78l19.09,58.76h61.78l19.09-58.76
			L50,2.46L50,2.46z"/>
	</g>
</g>
<g id="Layer_2" class="st1">
	<g id="_x32_7.-Team" class="st2">
		<path id="Layer-1" class="st3" d="M39.15,39.88c-0.48,0.3-1.38,2.2-0.97,3.86c0.61,2.47,2.77,3.44,2.77,3.44s3.38,4.56,3.38,7.22
			s0,3.69-0.91,5.9c-0.91,2.21-18.69,4.87-19.45,17.92h25.89l26.17,0C75.27,65.17,57.49,62.51,56.58,60.3
			c-0.91-2.21-0.91-3.25-0.91-5.9s3.38-7.22,3.38-7.22s2.16-0.96,2.77-3.44c0.41-1.66-0.49-3.56-0.97-3.86
			c1.28-4,3.84-17.78-10.71-18.28c-0.06-0.01-0.13-0.01-0.19-0.01C35.31,22.1,37.87,35.88,39.15,39.88z"/>
		<path id="Layer-2" class="st3" d="M17.12,69.52c4.27-3.06,9.6-4.25,10.03-5.31c0.72-1.75,0.72-2.57,0.72-4.67
			s-2.68-5.71-2.68-5.71S23.48,53.06,23,51.1c-0.32-1.32,0.39-2.82,0.77-3.05c-1.01-3.16-3.04-14.07,8.55-14.47c0.05,0,0.1,0,0.15,0
			c2.5,0.09,4.36,0.67,5.73,1.56c0.18,1.98,0.6,3.69,0.94,4.74c-0.48,0.3-1.38,2.2-0.97,3.86c0.61,2.47,2.77,3.44,2.77,3.44
			s0.07,0.1,0.19,0.27c-0.06,0.23-0.12,0.43-0.18,0.61c0.38,0.24,1.09,1.74,0.77,3.05c-0.48,1.96-2.19,2.72-2.19,2.72
			s-2.68,3.61-2.68,5.71c0,1.75,0,2.61,0.42,3.86c-5.52,2.46-12.82,6.55-13.3,14.81h25.89l26.17,0
			c-0.49-8.42-8.05-12.51-13.61-14.95c0.38-1.2,0.38-2.06,0.38-3.76c0-2.1-2.68-5.71-2.68-5.71s-1.71-0.76-2.19-2.72
			c-0.32-1.32,0.39-2.82,0.77-3.05c-0.02-0.07-0.05-0.15-0.07-0.24c0.26-0.38,0.42-0.6,0.42-0.6s2.16-0.96,2.77-3.44
			c0.41-1.66-0.49-3.56-0.97-3.86c0.35-1.09,0.79-2.9,0.96-4.98c1.35-0.78,3.12-1.28,5.44-1.36c0.05,0,0.1,0,0.15,0
			c11.52,0.39,9.49,11.3,8.48,14.47c0.38,0.24,1.09,1.74,0.77,3.05c-0.48,1.96-2.19,2.72-2.19,2.72s-2.68,3.61-2.68,5.71
			c0,2.1,0,2.92,0.72,4.67c0.45,1.09,6.05,2.31,10.37,5.56v8.63l-15.69,0H52.97c0,0.01,0,0.02,0,0.03l-20.72,0H17.12V69.52z"/>
	</g>
</g>
<g id="Layer_3" class="st1">
	<path class="st4" d="M71.72,54.74L57.3,52.64l-6.45-13.06c-0.16-0.32-0.49-0.53-0.85-0.53s-0.69,0.21-0.85,0.53L42.7,52.64
		l-14.42,2.09c-0.36,0.05-0.65,0.3-0.77,0.65s-0.02,0.72,0.24,0.97l10.43,10.17l-2.46,14.36c-0.06,0.36,0.09,0.72,0.38,0.93
		c0.29,0.21,0.68,0.24,1,0.07L50,75.11l12.9,6.78c0.14,0.07,0.29,0.11,0.44,0.11c0.2,0,0.39-0.06,0.56-0.18
		c0.29-0.21,0.44-0.57,0.38-0.93l-2.46-14.36l10.43-10.17c0.26-0.25,0.35-0.63,0.24-0.97C72.37,55.04,72.08,54.79,71.72,54.74z
		 M60.13,65.52c-0.22,0.22-0.33,0.53-0.27,0.84l2.22,12.95L50.44,73.2c-0.28-0.15-0.61-0.15-0.88,0l-11.63,6.12l2.22-12.95
		c0.05-0.31-0.05-0.62-0.27-0.84l-9.41-9.17l13.01-1.89c0.31-0.04,0.58-0.24,0.72-0.52L50,42.15l5.82,11.79
		c0.14,0.28,0.41,0.47,0.72,0.52l13.01,1.89L60.13,65.52z"/>
	<path class="st4" d="M33.59,43.41c0.36,0,0.7-0.2,0.86-0.55c0.22-0.47,0.02-1.04-0.46-1.26L24,36.93
		c-0.47-0.22-1.04-0.02-1.26,0.46s-0.02,1.04,0.46,1.26l9.99,4.67C33.32,43.38,33.45,43.41,33.59,43.41z"/>
	<path class="st4" d="M76.4,38.39c-0.22-0.47-0.79-0.68-1.26-0.46l-9.99,4.67c-0.48,0.22-0.68,0.79-0.46,1.26
		c0.16,0.35,0.5,0.55,0.86,0.55c0.13,0,0.27-0.03,0.4-0.09l9.99-4.67C76.42,39.43,76.63,38.86,76.4,38.39z"/>
	<path class="st4" d="M50,34.89c0.52,0,0.95-0.43,0.95-0.95V22.95c0-0.53-0.43-0.95-0.95-0.95s-0.95,0.42-0.95,0.95v10.99
		C49.05,34.46,49.48,34.89,50,34.89z"/>
</g>
<g id="Layer_4">
	<path class="st5" d="M50,36.2c-8.13,0-14.72,6.59-14.72,14.72c0,3.88,1.5,7.41,3.96,10.04c2.69,2.88,6.51,4.67,10.76,4.67
		c4.25,0,8.07-1.8,10.76-4.67c2.46-2.63,3.96-6.16,3.96-10.04C64.72,42.79,58.13,36.2,50,36.2z M31.08,50.92
		C31.08,40.47,39.55,32,50,32c10.45,0,18.92,8.47,18.92,18.92c0,4.58-1.63,8.78-4.33,12.05l3.3,13.85c0.8,3.38-2.6,6.22-5.78,4.83
		L50,76.34l-12.11,5.3c-3.18,1.39-6.58-1.45-5.78-4.83l3.3-13.85C32.7,59.7,31.08,55.5,31.08,50.92z M38.94,66.28L36.2,77.79
		l12.11-5.3c1.07-0.47,2.3-0.47,3.37,0l12.11,5.3l-2.74-11.51c-3.11,2.24-6.93,3.56-11.06,3.56S42.05,68.52,38.94,66.28z
		 M59.9,45.23c0.82,0.82,0.82,2.15,0,2.97l-8.41,8.41c-0.82,0.82-2.15,0.82-2.97,0l-4.2-4.2c-0.82-0.82-0.82-2.15,0-2.97
		c0.82-0.82,2.15-0.82,2.97,0L50,52.15l6.92-6.92C57.74,44.41,59.08,44.41,59.9,45.23z"/>
	<g>
	</g>
	<g>
	</g>
	<g>
	</g>
	<g>
	</g>
	<g>
	</g>
	<g>
	</g>
	<g>
	</g>
	<g>
	</g>
	<g>
	</g>
	<g>
	</g>
	<g>
	</g>
	<g>
	</g>
	<g>
	</g>
	<g>
	</g>
	<g>
	</g>
</g>
</svg>
