<?xml version="1.0" encoding="utf-8"?>
<!-- Generator: Adobe Illustrator 24.1.3, SVG Export Plug-In . SVG Version: 6.00 Build 0)  -->
<svg version="1.1" xmlns="http://www.w3.org/2000/svg" xmlns:xlink="http://www.w3.org/1999/xlink" x="0px" y="0px"
	 viewBox="0 0 100 100" style="enable-background:new 0 0 100 100;" xml:space="preserve">
<style type="text/css">
	.st0{fill:#2A9D8F;}
	.st1{fill:none;}
	.st2{fill-rule:evenodd;clip-rule:evenodd;fill:#2A9D8F;}
</style>
<g id="Layer_1">
	<g>
		<path class="st0" d="M50,4.93l47.63,34.61l-18.19,56H20.56l-18.19-56L50,4.93 M50,2.46L0.02,38.78l19.09,58.76h61.78l19.09-58.76
			L50,2.46L50,2.46z"/>
	</g>
</g>
<g id="Layer_2">
	<g id="Icons">
		<g id="Rounded" transform="translate(-136.000000, -4145.000000)">
			<g id="Social" transform="translate(100.000000, 4044.000000)">
				<g id="_x2D_Round-_x2F_-Social-_x2F_-school" transform="translate(34.000000, 98.000000)">
					<g>
						<polygon id="Path" class="st1" points="19.12,30.6 84.88,30.6 84.88,87.4 19.12,87.4 						"/>
						<path id="_xD83D__xDD39_-Icon-Color" class="st2" d="M32.82,61.79v6.65c0,1.73,1.1,3.34,2.85,4.16l13.7,6.46
							c1.64,0.78,3.62,0.78,5.26,0l13.7-6.46c1.75-0.83,2.85-2.44,2.85-4.16v-6.65L54.63,69.6c-1.64,0.78-3.62,0.78-5.26,0
							L32.82,61.79z M49.37,38.93l-23.1,10.89c-1.89,0.9-1.89,3.27,0,4.16l23.1,10.89c1.64,0.78,3.62,0.78,5.26,0l22.03-10.39v13.99
							c0,1.3,1.23,2.37,2.74,2.37c1.51,0,2.74-1.06,2.74-2.37V53.3c0-0.88-0.55-1.66-1.42-2.08L54.63,38.93
							C52.99,38.18,51.01,38.18,49.37,38.93z"/>
					</g>
				</g>
			</g>
		</g>
	</g>
</g>
</svg>
