<?xml version="1.0" encoding="utf-8"?>
<!-- Generator: Adobe Illustrator 24.1.3, SVG Export Plug-In . SVG Version: 6.00 Build 0)  -->
<svg version="1.1" xmlns="http://www.w3.org/2000/svg" xmlns:xlink="http://www.w3.org/1999/xlink" x="0px" y="0px"
	 viewBox="0 0 100 100" style="enable-background:new 0 0 100 100;" xml:space="preserve">
<style type="text/css">
	.st0{fill:#2A9D8F;}
	.st1{fill:none;stroke:#2A9D8F;stroke-width:4;stroke-linecap:round;stroke-linejoin:round;}
</style>
<g id="Layer_1">
	<g>
		<path class="st0" d="M50,4.93l47.63,34.61l-18.19,56H20.56l-18.19-56L50,4.93 M50,2.46L0.02,38.78l19.09,58.76h61.78l19.09-58.76
			L50,2.46L50,2.46z"/>
	</g>
</g>
<g id="Layer_2">
	<g id="_x32_7.-Team">
		<path id="Layer-1" class="st1" d="M39.15,39.88c-0.48,0.3-1.38,2.2-0.97,3.86c0.61,2.47,2.77,3.44,2.77,3.44s3.38,4.56,3.38,7.22
			s0,3.69-0.91,5.9c-0.91,2.21-18.69,4.87-19.45,17.92h25.89l26.17,0C75.27,65.17,57.49,62.51,56.58,60.3
			c-0.91-2.21-0.91-3.25-0.91-5.9s3.38-7.22,3.38-7.22s2.16-0.96,2.77-3.44c0.41-1.66-0.49-3.56-0.97-3.86
			c1.28-4,3.84-17.78-10.71-18.28c-0.06-0.01-0.13-0.01-0.19-0.01C35.31,22.1,37.87,35.88,39.15,39.88z"/>
		<path id="Layer-2" class="st1" d="M17.12,69.52c4.27-3.06,9.6-4.25,10.03-5.31c0.72-1.75,0.72-2.57,0.72-4.67
			s-2.68-5.71-2.68-5.71S23.48,53.06,23,51.1c-0.32-1.32,0.39-2.82,0.77-3.05c-1.01-3.16-3.04-14.07,8.55-14.47c0.05,0,0.1,0,0.15,0
			c2.5,0.09,4.36,0.67,5.73,1.56c0.18,1.98,0.6,3.69,0.94,4.74c-0.48,0.3-1.38,2.2-0.97,3.86c0.61,2.47,2.77,3.44,2.77,3.44
			s0.07,0.1,0.19,0.27c-0.06,0.23-0.12,0.43-0.18,0.61c0.38,0.24,1.09,1.74,0.77,3.05c-0.48,1.96-2.19,2.72-2.19,2.72
			s-2.68,3.61-2.68,5.71c0,1.75,0,2.61,0.42,3.86c-5.52,2.46-12.82,6.55-13.3,14.81h25.89l26.17,0
			c-0.49-8.42-8.05-12.51-13.61-14.95c0.38-1.2,0.38-2.06,0.38-3.76c0-2.1-2.68-5.71-2.68-5.71s-1.71-0.76-2.19-2.72
			c-0.32-1.32,0.39-2.82,0.77-3.05c-0.02-0.07-0.05-0.15-0.07-0.24c0.26-0.38,0.42-0.6,0.42-0.6s2.16-0.96,2.77-3.44
			c0.41-1.66-0.49-3.56-0.97-3.86c0.35-1.09,0.79-2.9,0.96-4.98c1.35-0.78,3.12-1.28,5.44-1.36c0.05,0,0.1,0,0.15,0
			c11.52,0.39,9.49,11.3,8.48,14.47c0.38,0.24,1.09,1.74,0.77,3.05c-0.48,1.96-2.19,2.72-2.19,2.72s-2.68,3.61-2.68,5.71
			c0,2.1,0,2.92,0.72,4.67c0.45,1.09,6.05,2.31,10.37,5.56v8.63l-15.69,0H52.97c0,0.01,0,0.02,0,0.03l-20.72,0H17.12V69.52z"/>
	</g>
	<g>
	</g>
	<g>
	</g>
	<g>
	</g>
	<g>
	</g>
	<g>
	</g>
	<g>
	</g>
	<g>
	</g>
	<g>
	</g>
	<g>
	</g>
	<g>
	</g>
	<g>
	</g>
	<g>
	</g>
	<g>
	</g>
	<g>
	</g>
	<g>
	</g>
</g>
</svg>
