<?xml version="1.0" encoding="utf-8"?>
<!-- Generator: Adobe Illustrator 24.1.3, SVG Export Plug-In . SVG Version: 6.00 Build 0)  -->
<svg version="1.1" xmlns="http://www.w3.org/2000/svg" xmlns:xlink="http://www.w3.org/1999/xlink" x="0px" y="0px"
	 viewBox="0 0 100 100" style="enable-background:new 0 0 100 100;" xml:space="preserve">
<style type="text/css">
	.st0{display:none;}
	.st1{display:inline;}
</style>
<g id="Layer_1" class="st0">
	<g class="st1">
		<path d="M94.2,5.52c-3.67-3.67-8.08-5.5-13.25-5.5h-62.5c-5.16,0-9.58,1.83-13.25,5.5C1.54,9.18-0.3,13.6-0.3,18.76v62.5
			c0,5.16,1.83,9.58,5.5,13.25c3.67,3.67,8.08,5.5,13.25,5.5h62.5c5.16,0,9.58-1.83,13.25-5.5c3.67-3.67,5.5-8.08,5.5-13.25v-62.5
			C99.7,13.6,97.87,9.18,94.2,5.52z M28.09,66.75H16.04c-0.69,0-1.22-0.28-1.56-0.85c-0.39-0.61-0.39-1.21,0-1.82l12.76-22.52v-0.06
			L19.1,27.42c-0.35-0.74-0.37-1.37-0.06-1.89c0.35-0.48,0.91-0.72,1.69-0.72h11.98c1.34,0,2.47,0.74,3.39,2.21
			c5.47,9.59,8.2,14.41,8.2,14.45L31.34,64.4C30.52,65.96,29.43,66.75,28.09,66.75z M84.92,10.95L58.3,58.02v0.07l16.93,30.99
			c0.39,0.65,0.41,1.26,0.06,1.82c-0.3,0.52-0.85,0.78-1.63,0.78H61.68c-1.39,0-2.52-0.76-3.39-2.28
			C46.97,68.61,41.28,58.17,41.24,58.09L68,10.62c0.82-1.52,1.89-2.28,3.19-2.28h12.18c0.74,0,1.26,0.26,1.56,0.78
			C85.27,9.65,85.27,10.26,84.92,10.95z"/>
	</g>
</g>
<g id="Layer_2" class="st0">
	<path class="st1" d="M25.45,70.4L41.9,44.08L25.45,17.76H0.23l16.45,26.32L0.23,70.4H25.45z M10.78,23.61h11.43L35,44.08
		L22.21,64.55H10.78l12.79-20.47L10.78,23.61z"/>
	<path class="st1" d="M75.6,0.02L37.94,61.63l23.64,38.2H86L62.35,61.61L100,0.02H75.6z M75.5,93.98H64.83L44.8,61.61L78.88,5.87
		h10.69L55.48,61.63L75.5,93.98z"/>
</g>
<g id="Layer_3" class="st0">
	<g class="st1">
		<path d="M78.16,100c-1.22,0-2.2-0.99-2.2-2.2V64.34c0-12.1-6.21-12.1-8.55-12.1c-6.52,0-9.82,4.07-9.82,12.1V97.8
			c0,1.22-0.99,2.2-2.2,2.2H36.46c-1.22,0-2.2-0.99-2.2-2.2V34.06c0-1.22,0.99-2.2,2.2-2.2h18.92c1.22,0,2.2,0.99,2.2,2.2v2.37
			l1.14-0.94c4.48-3.7,9.82-5.58,15.88-5.58c7.49,0,13.8,2.39,18.23,6.92c4.69,4.78,7.16,11.91,7.16,20.6V97.8
			c0,1.22-0.99,2.2-2.2,2.2L78.16,100L78.16,100z M67.41,47.83c4.84,0,12.96,2.15,12.96,16.51v31.26h15.23V57.44
			c0-14.69-7.65-23.11-20.99-23.11c-11.91,0-17.07,8.99-17.28,9.37c-0.39,0.7-1.12,1.14-1.93,1.14c-0.18,0-0.36-0.03-0.55-0.07
			c-0.98-0.25-1.66-1.12-1.66-2.12v-6.38H38.66V95.6h14.51V64.34C53.18,54,58.5,47.83,67.41,47.83L67.41,47.83z"/>
		<path d="M4.1,100c-1.22,0-2.2-0.99-2.2-2.2V34.06c0-1.22,0.99-2.2,2.2-2.2h19.74c1.22,0,2.2,0.99,2.2,2.2V97.8
			c0,1.22-0.99,2.2-2.2,2.2C23.84,100,4.1,100,4.1,100z M6.3,95.59h15.33V36.27H6.3V95.59z"/>
		<path d="M13.88,27.91C6.23,27.91,0,21.65,0,13.96C0,6.26,6.23,0,13.88,0c7.64,0,13.86,6.26,13.86,13.96
			C27.74,21.65,21.52,27.91,13.88,27.91L13.88,27.91z M13.88,4.4c-5.22,0-9.47,4.29-9.47,9.56c0,5.27,4.25,9.55,9.47,9.55
			c5.22,0,9.46-4.28,9.46-9.55C23.34,8.69,19.1,4.4,13.88,4.4L13.88,4.4z"/>
	</g>
</g>
<g id="Layer_4">
	<path d="M50,0C22.52,0,0,22.71,0,50.2C0,77.52,22.31,100,50,100c27.65,0,50-22.45,50-49.8C100,22.71,77.48,0,50,0z M58.79,93.26
		c-2.81,0.59-5.8,0.88-8.79,0.88s-5.98-0.29-8.79-0.88V79.55c0-3.28,0.88-4.45,2.05-6.04c0.6-0.68,0.96-1.29,3.63-5.33l-4.51-0.7
		c-11.6-1.7-16.17-7.73-17.99-12.42c-2.34-6.27-1.11-14.12,3.11-19.1c0.64-0.76,1.17-2.05,0.7-3.4c-0.88-2.7-0.76-6.97-0.18-8.61
		c3.11,0.44,6.3,2.67,8.97,4.28c1.23,0.72,1.87,0.53,2.46,0.59c2.14-0.45,5.48-1.52,10.61-1.52c3.16,0,6.5,0.47,9.79,1.41
		c0.59-0.01,1.53,0.49,3.16-0.47c2.78-1.7,5.87-3.85,8.96-4.28c0.59,1.64,0.7,5.92-0.18,8.61c-0.47,1.35,0.06,2.64,0.7,3.4
		c4.22,4.98,5.45,12.83,3.11,19.1c-1.82,4.69-6.39,10.72-17.99,12.42l-4.51,0.7c2.77,4.17,3.06,4.67,3.63,5.33
		c1.17,1.58,2.05,2.75,2.05,6.04V93.26z M64.65,91.56V79.55c0-3.34-0.7-5.57-1.64-7.21c8.91-2.4,15.24-7.68,18.05-15.23
		c2.99-7.97,1.64-17.46-3.34-24.02c0.88-3.93,0.88-10.2-1.23-13.12c-0.94-1.29-2.23-1.99-3.87-1.99c-0.06,0-0.06,0-0.06,0
		c-4.54,0.25-8.12,2.53-11.95,4.86c-3.52-0.94-7.09-1.41-10.66-1.41c-3.63,0-7.27,0.53-10.49,1.41c-4.04-2.43-7.58-4.62-12.25-4.86
		c-1.46,0-2.75,0.7-3.69,1.99c-2.11,2.93-2.11,9.2-1.23,13.12c-4.98,6.56-6.33,16.11-3.34,24.02c2.81,7.56,9.14,12.83,18.05,15.23
		c-0.73,1.27-1.3,2.91-1.53,5.13c-1.8,0.62-3.36,0.82-4.81,0.4c-1.53-0.45-2.72-1.47-3.76-3.22c-2.33-3.91-6.29-7.1-10.8-6.69
		l0.51,5.84c2.09-0.19,4.17,2.02,5.25,3.84c1.78,3,4.18,4.97,7.14,5.84c2.19,0.65,4.2,0.63,6.36,0.17v7.9
		C18.3,85.59,5.86,69.3,5.86,50.2C5.86,25.94,25.74,5.86,50,5.86S94.14,25.94,94.14,50.2C94.14,69.3,81.7,85.59,64.65,91.56z"/>
	<g>
	</g>
	<g>
	</g>
	<g>
	</g>
	<g>
	</g>
	<g>
	</g>
	<g>
	</g>
	<g>
	</g>
	<g>
	</g>
	<g>
	</g>
	<g>
	</g>
	<g>
	</g>
	<g>
	</g>
	<g>
	</g>
	<g>
	</g>
	<g>
	</g>
</g>
</svg>
