<?xml version="1.0" encoding="utf-8"?>
<!-- Generator: Adobe Illustrator 24.1.3, SVG Export Plug-In . SVG Version: 6.00 Build 0)  -->
<svg version="1.1" id="Layer_1" xmlns="http://www.w3.org/2000/svg" xmlns:xlink="http://www.w3.org/1999/xlink" x="0px" y="0px"
	 viewBox="0 0 100 100" style="enable-background:new 0 0 100 100;" xml:space="preserve">
<style type="text/css">
	.st0{display:none;}
	.st1{display:inline;}
	.st2{fill:#FFFFFF;}
</style>
<g id="Layer_1_1_" class="st0">
	<g class="st1">
		<path d="M94.2,5.52c-3.67-3.67-8.08-5.5-13.25-5.5h-62.5c-5.16,0-9.58,1.83-13.25,5.5C1.54,9.18-0.3,13.6-0.3,18.76v62.5
			c0,5.16,1.83,9.58,5.5,13.25s8.08,5.5,13.25,5.5h62.5c5.16,0,9.58-1.83,13.25-5.5s5.5-8.08,5.5-13.25v-62.5
			C99.7,13.6,97.87,9.18,94.2,5.52z M28.09,66.75H16.04c-0.69,0-1.22-0.28-1.56-0.85c-0.39-0.61-0.39-1.21,0-1.82l12.76-22.52V41.5
			L19.1,27.42c-0.35-0.74-0.37-1.37-0.06-1.89c0.35-0.48,0.91-0.72,1.69-0.72h11.98c1.34,0,2.47,0.74,3.39,2.21
			c5.47,9.59,8.2,14.41,8.2,14.45L31.34,64.4C30.52,65.96,29.43,66.75,28.09,66.75z M84.92,10.95L58.3,58.02v0.07l16.93,30.99
			c0.39,0.65,0.41,1.26,0.06,1.82c-0.3,0.52-0.85,0.78-1.63,0.78H61.68c-1.39,0-2.52-0.76-3.39-2.28
			C46.97,68.61,41.28,58.17,41.24,58.09L68,10.62c0.82-1.52,1.89-2.28,3.19-2.28h12.18c0.74,0,1.26,0.26,1.56,0.78
			C85.27,9.65,85.27,10.26,84.92,10.95z"/>
	</g>
</g>
<g id="Layer_2_1_">
	<path class="st2" d="M25.45,70.4L41.9,44.08L25.45,17.76H0.23l16.45,26.32L0.23,70.4H25.45z M10.78,23.61h11.43L35,44.08
		L22.21,64.55H10.78l12.79-20.47L10.78,23.61z"/>
	<path class="st2" d="M75.6,0.02L37.94,61.63l23.64,38.2H86L62.35,61.61L100,0.02H75.6z M75.5,93.98H64.83L44.8,61.61L78.88,5.87
		h10.69L55.48,61.63L75.5,93.98z"/>
</g>
</svg>
