<?xml version="1.0" encoding="utf-8"?>
<!-- Generator: Adobe Illustrator 24.1.3, SVG Export Plug-In . SVG Version: 6.00 Build 0)  -->
<svg version="1.1" xmlns="http://www.w3.org/2000/svg" xmlns:xlink="http://www.w3.org/1999/xlink" x="0px" y="0px"
	 viewBox="0 0 100 100" style="enable-background:new 0 0 100 100;" xml:space="preserve">
<style type="text/css">
	.st0{display:none;}
	.st1{display:inline;}
	.st2{fill:#000111;}
</style>
<g id="Layer_1" class="st0">
	<g id="Layer_2_1_" class="st1">
		<g id="Layer_1-2">
			<path class="st2" d="M81.14,31.15c-1.18-3.11-4.15-5.16-7.47-5.17h-48c-3.38,0.01-6.39,2.14-7.52,5.33
				c-0.32,0.85-0.48,1.76-0.48,2.67v32c0,3.26,1.98,6.19,5,7.41c0.95,0.39,1.97,0.59,3,0.59h48c0.98,0.01,1.95-0.18,2.85-0.56
				c1.76-0.65,3.24-1.91,4.15-3.55c0.66-1.19,1-2.53,1-3.89v-32C81.67,33.01,81.49,32.05,81.14,31.15z M23,33.98
				c0.01-1.47,1.2-2.66,2.67-2.67h48c1.47,0.01,2.66,1.2,2.67,2.67v0.51l-21.26,16l-4.41,3.41l-1,0.75l-1-0.78l-4.46-3.33L23,34.59
				V33.98z M23,65.98V41.26l16.78,12.61L23.06,66.43C23.02,66.28,23,66.13,23,65.98z M29,68.65l15.23-11.44l3.84,2.9
				c0.95,0.72,2.25,0.72,3.2,0l3.81-2.88L70.2,68.65H29z M76.34,65.98c0,0.19-0.03,0.38-0.08,0.56L59.51,53.87l16.83-12.72V65.98z"
				/>
		</g>
	</g>
</g>
<g id="Layer_2">
	<path d="M92.69,77.01c0.05-0.14,0.08-0.3,0.08-0.46V23.42c0-0.16-0.03-0.32-0.08-0.46c-0.01-0.02-0.01-0.04-0.02-0.06
		c-0.06-0.17-0.16-0.33-0.28-0.46c-0.01-0.01-0.01-0.02-0.02-0.03c0,0-0.01-0.01-0.02-0.01c-0.13-0.13-0.28-0.24-0.44-0.32
		c-0.01-0.01-0.02-0.01-0.04-0.02c-0.16-0.07-0.33-0.11-0.51-0.12c-0.02,0-0.04,0-0.05,0c-0.02,0-0.03,0-0.05,0H8.07
		c-0.02,0-0.03,0-0.05,0c-0.02,0-0.03,0-0.05,0c-0.18,0.01-0.36,0.05-0.52,0.13c-0.01,0-0.02,0.01-0.03,0.01
		c-0.17,0.08-0.32,0.19-0.45,0.33c-0.01,0-0.01,0.01-0.02,0.01c-0.01,0.01-0.01,0.02-0.02,0.03c-0.12,0.14-0.21,0.29-0.28,0.46
		c-0.01,0.02-0.01,0.04-0.02,0.06c-0.05,0.15-0.08,0.3-0.08,0.46v53.13c0,0.16,0.03,0.32,0.08,0.47c0.01,0.02,0.01,0.04,0.02,0.06
		c0.07,0.17,0.16,0.33,0.28,0.46c0.01,0.01,0.01,0.02,0.02,0.03c0.01,0.01,0.01,0.01,0.02,0.02c0.05,0.05,0.1,0.1,0.16,0.14
		c0.03,0.02,0.05,0.04,0.07,0.06c0.07,0.05,0.14,0.08,0.21,0.12c0.02,0.01,0.03,0.02,0.05,0.03c0.18,0.08,0.38,0.12,0.59,0.12h83.2
		c0.21,0,0.41-0.04,0.59-0.12c0.03-0.01,0.05-0.03,0.08-0.04c0.06-0.03,0.12-0.06,0.18-0.1c0.03-0.02,0.06-0.05,0.09-0.07
		c0.05-0.04,0.1-0.08,0.14-0.13c0.01-0.01,0.02-0.01,0.03-0.02c0.01-0.01,0.01-0.02,0.02-0.03c0.12-0.13,0.21-0.29,0.28-0.46
		C92.68,77.05,92.69,77.03,92.69,77.01z M9.57,26.82l25.25,23.06L9.57,73.13V26.82z M61.31,48.75c-0.1,0.07-0.21,0.13-0.3,0.22
		c-0.03,0.04-0.04,0.08-0.07,0.12L49.67,59.39L11.93,24.92h75.47L61.31,48.75z M37.04,51.91l11.62,10.61
		c0.29,0.26,0.65,0.39,1.01,0.39s0.72-0.13,1.01-0.39l11.47-10.48l25.24,23H11.91L37.04,51.91z M64.38,50.01l25.39-23.19v46.33
		L64.38,50.01z"/>
	<g>
	</g>
	<g>
	</g>
	<g>
	</g>
	<g>
	</g>
	<g>
	</g>
	<g>
	</g>
	<g>
	</g>
	<g>
	</g>
	<g>
	</g>
	<g>
	</g>
	<g>
	</g>
	<g>
	</g>
	<g>
	</g>
	<g>
	</g>
	<g>
	</g>
</g>
</svg>
