<?xml version="1.0" encoding="utf-8"?>
<!-- Generator: Adobe Illustrator 24.1.3, SVG Export Plug-In . SVG Version: 6.00 Build 0)  -->
<svg version="1.1" xmlns="http://www.w3.org/2000/svg" xmlns:xlink="http://www.w3.org/1999/xlink" x="0px" y="0px"
	 viewBox="0 0 100 100" style="enable-background:new 0 0 100 100;" xml:space="preserve">
<style type="text/css">
	.st0{display:none;}
	.st1{display:inline;}
	.st2{fill:#000111;}
	.st3{fill:none;stroke:#000000;stroke-width:2;stroke-miterlimit:10;}
	.st4{fill:none;stroke:#000000;stroke-width:2;stroke-linejoin:bevel;stroke-miterlimit:10;}
</style>
<g id="Layer_1" class="st0">
	<g id="Layer_2_1_" class="st1">
		<g id="Layer_1-2">
			<path class="st2" d="M81.14,31.15c-1.18-3.11-4.15-5.16-7.47-5.17h-48c-3.38,0.01-6.39,2.14-7.52,5.33
				c-0.32,0.85-0.48,1.76-0.48,2.67v32c0,3.26,1.98,6.19,5,7.41c0.95,0.39,1.97,0.59,3,0.59h48c0.98,0.01,1.95-0.18,2.85-0.56
				c1.76-0.65,3.24-1.91,4.15-3.55c0.66-1.19,1-2.53,1-3.89v-32C81.67,33.01,81.49,32.05,81.14,31.15z M23,33.98
				c0.01-1.47,1.2-2.66,2.67-2.67h48c1.47,0.01,2.66,1.2,2.67,2.67v0.51l-21.26,16l-4.41,3.41l-1,0.75l-1-0.78l-4.46-3.33L23,34.59
				V33.98z M23,65.98V41.26l16.78,12.61L23.06,66.43C23.02,66.28,23,66.13,23,65.98z M29,68.65l15.23-11.44l3.84,2.9
				c0.95,0.72,2.25,0.72,3.2,0l3.81-2.88L70.2,68.65H29z M76.34,65.98c0,0.19-0.03,0.38-0.08,0.56L59.51,53.87l16.83-12.72V65.98z"
				/>
		</g>
	</g>
</g>
<g id="Layer_2" class="st0">
	<path class="st1" d="M92.69,77.01c0.05-0.14,0.08-0.3,0.08-0.46V23.42c0-0.16-0.03-0.32-0.08-0.46c-0.01-0.02-0.01-0.04-0.02-0.06
		c-0.06-0.17-0.16-0.33-0.28-0.46c-0.01-0.01-0.01-0.02-0.02-0.03c0,0-0.01-0.01-0.02-0.01c-0.13-0.13-0.28-0.24-0.44-0.32
		c-0.01-0.01-0.02-0.01-0.04-0.02c-0.16-0.07-0.33-0.11-0.51-0.12c-0.02,0-0.04,0-0.05,0c-0.02,0-0.03,0-0.05,0H8.07
		c-0.02,0-0.03,0-0.05,0c-0.02,0-0.03,0-0.05,0c-0.18,0.01-0.36,0.05-0.52,0.13c-0.01,0-0.02,0.01-0.03,0.01
		c-0.17,0.08-0.32,0.19-0.45,0.33c-0.01,0-0.01,0.01-0.02,0.01c-0.01,0.01-0.01,0.02-0.02,0.03c-0.12,0.14-0.21,0.29-0.28,0.46
		c-0.01,0.02-0.01,0.04-0.02,0.06c-0.05,0.15-0.08,0.3-0.08,0.46v53.13c0,0.16,0.03,0.32,0.08,0.47c0.01,0.02,0.01,0.04,0.02,0.06
		c0.07,0.17,0.16,0.33,0.28,0.46c0.01,0.01,0.01,0.02,0.02,0.03c0.01,0.01,0.01,0.01,0.02,0.02c0.05,0.05,0.1,0.1,0.16,0.14
		c0.03,0.02,0.05,0.04,0.07,0.06c0.07,0.05,0.14,0.08,0.21,0.12c0.02,0.01,0.03,0.02,0.05,0.03c0.18,0.08,0.38,0.12,0.59,0.12h83.2
		c0.21,0,0.41-0.04,0.59-0.12c0.03-0.01,0.05-0.03,0.08-0.04c0.06-0.03,0.12-0.06,0.18-0.1c0.03-0.02,0.06-0.05,0.09-0.07
		c0.05-0.04,0.1-0.08,0.14-0.13c0.01-0.01,0.02-0.01,0.03-0.02c0.01-0.01,0.01-0.02,0.02-0.03c0.12-0.13,0.21-0.29,0.28-0.46
		C92.68,77.05,92.69,77.03,92.69,77.01z M9.57,26.82l25.25,23.06L9.57,73.13V26.82z M61.31,48.75c-0.1,0.07-0.21,0.13-0.3,0.22
		c-0.03,0.04-0.04,0.08-0.07,0.12L49.67,59.39L11.93,24.92h75.47L61.31,48.75z M37.04,51.91l11.62,10.61
		c0.29,0.26,0.65,0.39,1.01,0.39s0.72-0.13,1.01-0.39l11.47-10.48l25.24,23H11.91L37.04,51.91z M64.38,50.01l25.39-23.19v46.33
		L64.38,50.01z"/>
</g>
<g id="Layer_3" class="st0">
	<g class="st1">
		<path d="M84.02,68.78c-0.19-0.58-1.42-1.44-3.69-2.57c-0.61-0.36-1.49-0.84-2.62-1.46c-1.13-0.61-2.16-1.18-3.08-1.7
			c-0.92-0.52-1.79-1.02-2.6-1.5c-0.13-0.1-0.53-0.38-1.21-0.85c-0.68-0.47-1.25-0.82-1.72-1.04c-0.47-0.23-0.93-0.34-1.38-0.34
			c-0.65,0-1.45,0.46-2.43,1.38c-0.97,0.92-1.86,1.92-2.67,3.01c-0.81,1.08-1.67,2.09-2.57,3.01c-0.91,0.92-1.65,1.38-2.23,1.38
			c-0.29,0-0.66-0.08-1.09-0.24c-0.44-0.16-0.77-0.3-1-0.41c-0.23-0.11-0.61-0.34-1.16-0.68c-0.55-0.34-0.86-0.53-0.92-0.56
			c-4.43-2.46-8.23-5.27-11.4-8.44c-3.17-3.17-5.98-6.97-8.44-11.4c-0.03-0.06-0.22-0.37-0.56-0.92c-0.34-0.55-0.57-0.94-0.68-1.16
			c-0.11-0.23-0.25-0.56-0.41-0.99c-0.16-0.44-0.24-0.8-0.24-1.09c0-0.58,0.46-1.33,1.38-2.23c0.92-0.91,1.92-1.76,3.01-2.57
			c1.08-0.81,2.09-1.7,3.01-2.67c0.92-0.97,1.38-1.78,1.38-2.43c0-0.45-0.11-0.91-0.34-1.38c-0.23-0.47-0.57-1.04-1.04-1.72
			c-0.47-0.68-0.75-1.08-0.85-1.21c-0.48-0.81-0.99-1.67-1.5-2.6c-0.52-0.92-1.08-1.95-1.7-3.08c-0.61-1.13-1.1-2.01-1.46-2.62
			c-1.13-2.26-1.99-3.49-2.57-3.69c-0.23-0.1-0.57-0.15-1.02-0.15c-0.87,0-2.01,0.16-3.42,0.49c-1.41,0.32-2.52,0.66-3.32,1.02
			c-1.62,0.68-3.33,2.65-5.14,5.92c-1.65,3.04-2.47,6.05-2.47,9.03c0,0.87,0.06,1.72,0.17,2.55c0.11,0.82,0.32,1.76,0.61,2.79
			c0.29,1.04,0.53,1.8,0.7,2.3c0.18,0.5,0.51,1.4,0.99,2.69c0.48,1.29,0.78,2.09,0.87,2.38c1.13,3.17,2.47,6,4.03,8.49
			c2.55,4.14,6.04,8.42,10.46,12.84c4.42,4.42,8.69,7.9,12.84,10.46c2.49,1.55,5.32,2.89,8.49,4.03c0.29,0.1,1.08,0.39,2.38,0.87
			c1.29,0.49,2.19,0.82,2.69,0.99c0.5,0.18,1.27,0.41,2.3,0.7c1.04,0.29,1.97,0.49,2.79,0.61c0.83,0.11,1.67,0.17,2.55,0.17
			c2.98,0,5.99-0.83,9.03-2.48c3.27-1.81,5.24-3.53,5.92-5.14c0.36-0.81,0.7-1.92,1.02-3.32c0.32-1.41,0.49-2.55,0.49-3.42
			C84.16,69.34,84.11,69.01,84.02,68.78z"/>
	</g>
</g>
<g id="Layer_4" class="st0">
	<path class="st1" d="M78.15,59.09l-7.99-7.97c-1.25-1.25-3.03-1.83-4.79-1.55c-1.66,0.28-3.11,1.29-3.93,2.77l-1.72,2.21
		c-0.26,0.32-0.64,0.53-1.05,0.55c-0.4,0.03-0.8-0.13-1.08-0.41L45.32,42.33c-0.28-0.3-0.43-0.7-0.41-1.11
		c0.04-0.4,0.24-0.77,0.55-1.02l2.21-1.72c1.47-0.82,2.49-2.27,2.77-3.93c0.29-1.76-0.29-3.55-1.55-4.81l-8.05-7.97
		c-3.04-2.9-7.83-2.9-10.87,0l-8.6,8.63c-2.41,2.38-2.43,6.45,0,12.12c1.44,3.65,3.51,7.02,6.11,9.96l20.08,20.08
		c2.94,2.6,6.31,4.67,9.96,6.11c2.27,1.02,4.71,1.6,7.19,1.72c1.82,0.1,3.61-0.56,4.92-1.83l8.63-8.6
		C81.22,66.92,81.17,62.07,78.15,59.09z M74.14,65.95l-8.63,8.6c-1.63,1.19-10.73-2.77-14.05-6L31.38,48.47
		c-3.32-3.35-7.19-12.34-6-14.05l8.6-8.63c0.78-0.72,1.98-0.72,2.77,0l7.97,7.83l-2.77,2.1c-1.61,1.26-2.61,3.14-2.77,5.17
		c-0.14,2.06,0.62,4.07,2.07,5.53L53.54,58.7c1.45,1.47,3.47,2.23,5.53,2.07c2.04-0.15,3.92-1.16,5.17-2.77l1.85-2.38v-0.14v-0.25
		l7.99,7.97C74.81,63.98,74.83,65.16,74.14,65.95z"/>
</g>
<g id="Layer_5">
	<g>
		<rect x="29.37" y="10.04" class="st3" width="41.25" height="79.92"/>
		<line class="st3" x1="44.84" y1="15.19" x2="55.16" y2="15.19"/>
		<line class="st3" x1="29.37" y1="74.49" x2="70.63" y2="74.49"/>
		<line class="st3" x1="29.37" y1="20.35" x2="70.63" y2="20.35"/>
		<circle class="st4" cx="50" cy="82.23" r="2.58"/>
	</g>
	<g>
	</g>
	<g>
	</g>
	<g>
	</g>
	<g>
	</g>
	<g>
	</g>
	<g>
	</g>
	<g>
	</g>
	<g>
	</g>
	<g>
	</g>
	<g>
	</g>
	<g>
	</g>
	<g>
	</g>
	<g>
	</g>
	<g>
	</g>
	<g>
	</g>
</g>
</svg>
